<svg width="120" height="60" viewBox="0 0 120 60" xmlns="http://www.w3.org/2000/svg">
  <!-- Git Logo -->
  <g transform="translate(-3, -2) scale(1.4)">
    <path fill="#F4511E" d="M42.2,22.1L25.9,5.8C25.4,5.3,24.7,5,24,5c0,0,0,0,0,0c-0.7,0-1.4,0.3-1.9,0.8l-3.5,3.5l4.1,4.1
    c0.4-0.2,0.8-0.3,1.3-0.3c1.7,0,3,1.3,3,3c0,0.5-0.1,0.9-0.3,1.3l4,4c0.4-0.2,0.8-0.3,1.3-0.3c1.7,0,3,1.3,3,3s-1.3,3-3,3
    c-1.7,0-3-1.3-3-3c0-0.5,0.1-0.9,0.3-1.3l-4-4c-0.1,0-0.2,0.1-0.3,0.1v10.4c1.2,0.4,2,1.5,2,2.8c0,1.7-1.3,3-3,3s-3-1.3-3-3
    c0-1.3,0.8-2.4,2-2.8V18.8c-1.2-0.4-2-1.5-2-2.8c0-0.5,0.1-0.9,0.3-1.3l-4.1-4.1L5.8,22.1C5.3,22.6,5,23.3,5,24
    c0,0.7,0.3,1.4,0.8,1.9l16.3,16.3c0,0,0,0,0,0c0.5,0.5,1.2,0.8,1.9,0.8s1.4-0.3,1.9-0.8l16.3-16.3c0.5-0.5,0.8-1.2,0.8-1.9
    C43,23.3,42.7,22.6,42.2,22.1z"/>
  </g>

  <!-- GitHub Logo -->
  <g transform="translate(55, -4) scale(2.2)">
    <path fill="#000000" d="M16 4C9.37 4 4 9.37 4 16c0 5.3 3.44 9.8 8.21 11.39.6.11.79-.26.79-.57 
    0-.28-.01-1.02-.02-2-3.34.73-4.04-1.61-4.04-1.61-.55-1.39-1.34-1.76-1.34-1.76-1.09-.74.08-.73.08-.73 
    1.2.09 1.83 1.23 1.83 1.23 1.07 1.83 2.8 1.3 3.49.99.11-.78.42-1.3.76-1.6-2.66-.3-5.47-1.33-5.47-5.93 
    0-1.31.47-2.38 1.24-3.22-.12-.3-.54-1.52.12-3.17 0 0 1.01-.32 3.3 1.23a11.5 11.5 0 0 1 6 0c2.29-1.55 
    3.3-1.23 3.3-1.23.66 1.65.24 2.87.12 3.17.77.84 1.23 1.91 1.23 3.22 0 4.61-2.81 5.62-5.49 5.91.43.37.81 
    1.1.81 2.22 0 1.6-.01 2.88-.01 3.28 0 .31.2.68.8.57C24.57 25.79 28 21.3 28 16c0-6.63-5.37-12-12-12z"/>
  </g>
</svg>
